<?xml version="1.0" encoding="UTF-8" standalone="no"?>
<!-- Created with Inkscape (http://www.inkscape.org/) -->

<svg
   xmlns:dc="http://purl.org/dc/elements/1.1/"
   xmlns:cc="http://creativecommons.org/ns#"
   xmlns:rdf="http://www.w3.org/1999/02/22-rdf-syntax-ns#"
   xmlns:svg="http://www.w3.org/2000/svg"
   xmlns="http://www.w3.org/2000/svg"
   xmlns:sodipodi="http://sodipodi.sourceforge.net/DTD/sodipodi-0.dtd"
   xmlns:inkscape="http://www.inkscape.org/namespaces/inkscape"
   width="297mm"
   height="210mm"
   viewBox="0 0 1052.3622 744.09448"
   id="svg2"
   version="1.1"
   inkscape:version="0.91 r"
   sodipodi:docname="SOCIS_logo.svg">
  <defs
     id="defs4" />
  <sodipodi:namedview
     id="base"
     pagecolor="#ffffff"
     bordercolor="#666666"
     borderopacity="1.0"
     inkscape:pageopacity="0.0"
     inkscape:pageshadow="2"
     inkscape:zoom="1.2020576"
     inkscape:cx="526.1811"
     inkscape:cy="372.04724"
     inkscape:document-units="px"
     inkscape:current-layer="layer2"
     showgrid="false"
     inkscape:window-width="1920"
     inkscape:window-height="1056"
     inkscape:window-x="0"
     inkscape:window-y="24"
     inkscape:window-maximized="1" />
  <metadata
     id="metadata7">
    <rdf:RDF>
      <cc:Work
         rdf:about="">
        <dc:format>image/svg+xml</dc:format>
        <dc:type
           rdf:resource="http://purl.org/dc/dcmitype/StillImage" />
        <dc:title />
      </cc:Work>
    </rdf:RDF>
  </metadata>
  <g
     inkscape:groupmode="layer"
     id="layer3"
     inkscape:label="Texte">
    <text
       transform="translate(0,-308.26772)"
       xml:space="preserve"
       style="font-style:normal;font-variant:normal;font-weight:normal;font-stretch:normal;font-size:43.97823715px;line-height:125%;font-family:'Airstrike Bold 3D';-inkscape-font-specification:'Airstrike Bold 3D, Normal';text-align:start;letter-spacing:0px;word-spacing:0px;writing-mode:lr-tb;text-anchor:start;fill:#e9c6af;fill-opacity:1;stroke:none;stroke-width:1px;stroke-linecap:butt;stroke-linejoin:miter;stroke-opacity:1;"
       x="454.21997"
       y="742.86444"
       id="text4215"
       sodipodi:linespacing="125%"
       inkscape:export-xdpi="102.6"
       inkscape:export-ydpi="102.6"><tspan
         sodipodi:role="line"
         id="tspan4217"
         x="454.21997"
         y="742.86444">SOCIS</tspan></text>
    <g
       id="g4165"
       style="fill:#ff2a2a"
       inkscape:export-xdpi="102.6"
       inkscape:export-ydpi="102.6">
      <path
         inkscape:connector-curvature="0"
         id="path4155"
         d="m 457.51938,433.85294 c 0.22314,-0.35242 1.17947,-1.61625 2.12517,-2.80849 l 1.71946,-2.16772 7.67297,0 c 7.39559,0 7.68801,-0.015 8.08904,-0.41607 0.45025,-0.45025 0.53588,-1.32212 0.21319,-2.17084 l -0.20289,-0.53364 -5.06119,0 c -5.01696,0 -5.07056,-0.005 -6.13296,-0.53408 -2.15256,-1.07267 -3.48271,-3.33346 -3.48271,-5.91942 0,-1.35197 0.094,-1.75557 0.69149,-2.96926 0.87264,-1.7726 2.64627,-3.70342 4.03979,-4.39784 l 1.07141,-0.53391 11.5181,0 11.5181,0 -0.68904,0.96419 c -0.37898,0.53031 -1.51735,1.84094 -2.52972,2.91251 l -1.84067,1.94832 -7.46416,0 -7.46416,0 -0.30277,0.46808 c -0.61437,0.94985 -0.61622,1.52132 -0.006,2.00093 0.53442,0.42038 0.78956,0.4435 4.89428,0.4435 2.38176,0 4.79277,0.0992 5.3578,0.22032 1.40844,0.30206 2.55381,1.33135 3.40519,3.06008 0.63641,1.29223 0.68485,1.5381 0.68485,3.47587 0,1.86192 -0.0623,2.21212 -0.58151,3.26946 -0.79908,1.62721 -2.30976,3.24919 -3.575,3.83837 l -1.0444,0.48635 -11.51444,0.002 -11.51444,0.002 0.40571,-0.64077 0,-1e-4 z"
         style="fill:#ff2a2a;stroke:none;stroke-width:1px;stroke-linecap:butt;stroke-linejoin:miter;stroke-opacity:1" />
      <path
         inkscape:connector-curvature="0"
         id="path4157"
         d="m 497.01047,434.15893 c -2.28086,-0.41184 -3.86975,-1.17236 -5.02129,-2.40345 -1.58981,-1.69963 -1.86088,-2.52808 -1.86088,-5.68724 0,-3.00157 0.36331,-4.53398 1.60295,-6.76118 2.08301,-3.74244 6.11608,-6.93667 9.69327,-7.67718 1.70094,-0.3521 9.61476,-0.29068 11.80718,0.0916 5.30948,0.9259 7.48399,3.92551 6.7646,9.3314 -0.50752,3.81377 -1.6789,6.15635 -4.4875,8.97428 -1.4363,1.44107 -2.27034,2.08459 -3.58104,2.76304 -2.7921,1.44525 -4.20245,1.70664 -9.09051,1.68481 -2.63569,-0.0118 -4.78793,-0.12854 -5.82678,-0.31612 z m 9.81562,-6.06234 c 1.62351,-0.81717 3.6581,-2.74971 4.32068,-4.10398 0.45182,-0.92348 0.55097,-1.42009 0.55695,-2.78969 0.008,-1.91014 -0.34139,-2.73346 -1.48991,-3.50744 -0.63875,-0.43045 -0.93185,-0.46879 -3.58429,-0.46879 -2.70311,0 -2.95766,0.035 -3.96278,0.5443 -1.37967,0.69913 -3.26413,2.59722 -3.90029,3.92848 -0.94105,1.96933 -0.5245,4.337 1.03791,5.8994 0.95709,0.95709 1.25476,1.0416 3.72151,1.05664 1.96044,0.012 2.27032,-0.0405 3.30022,-0.55892 z"
         style="fill:#ff2a2a;stroke:none;stroke-width:1px;stroke-linecap:butt;stroke-linejoin:miter;stroke-opacity:1" />
      <path
         inkscape:connector-curvature="0"
         id="path4159"
         d="m 534.6481,434.18931 c -5.3965,-0.85354 -8.66848,-3.21857 -9.79633,-7.08089 -0.53075,-1.81756 -0.47948,-4.80491 0.11246,-6.55315 1.39268,-4.11311 4.76942,-7.65813 8.33163,-8.74682 1.27772,-0.3905 1.87747,-0.41023 10.88343,-0.35802 l 9.5312,0.0553 -1.63769,1.97635 c -0.90072,1.08699 -2.09019,2.37421 -2.64327,2.8605 l -1.00559,0.88415 -6.07657,0 -6.07657,0 -0.84523,0.61228 c -1.57454,1.14059 -2.96639,3.71742 -2.95729,5.47502 0.008,1.58259 1.17978,3.57281 2.74017,4.65487 l 0.85921,0.59582 5.70295,0.10401 5.70295,0.10402 -1.33865,1.76831 c -0.73626,0.97257 -1.86108,2.2598 -2.4996,2.8605 l -1.16094,1.09219 -3.08099,-0.0206 c -1.69455,-0.0113 -3.82992,-0.13905 -4.74528,-0.28383 z"
         style="fill:#ff2a2a;stroke:none;stroke-width:1px;stroke-linecap:butt;stroke-linejoin:miter;stroke-opacity:1" />
      <path
         inkscape:connector-curvature="0"
         id="path4161"
         d="m 548.69056,434.31987 c 0,-0.26682 3.16706,-4.00059 4.13556,-4.87557 l 0.85851,-0.77561 2.66719,0 2.66719,0 2.08279,-5.721 2.08278,-5.721 -4.12647,0 c -2.26955,0 -4.12646,-0.0609 -4.12646,-0.13543 0,-0.25437 3.10729,-3.96009 4.04653,-4.82585 l 0.93705,-0.86374 10.93832,0 10.93832,0 -0.37582,0.64202 c -0.70527,1.20481 -3.37604,4.30683 -4.0857,4.74543 -0.62034,0.38339 -1.02868,0.43757 -3.29794,0.43757 l -2.58993,0 -2.08905,5.721 -2.08906,5.721 4.14321,0 4.1432,0 -0.37583,0.64536 c -0.59765,1.02627 -3.46854,4.42131 -4.07441,4.8183 -0.50601,0.33154 -1.45338,0.36136 -11.48075,0.36136 -6.01108,0 -10.92923,-0.0782 -10.92923,-0.17384 z"
         style="fill:#ff2a2a;stroke:none;stroke-width:1px;stroke-linecap:butt;stroke-linejoin:miter;stroke-opacity:1" />
      <path
         inkscape:connector-curvature="0"
         id="path4163"
         d="m 578.6478,434.33383 c 0,-0.22226 2.80825,-3.958 3.58862,-4.77384 l 0.63989,-0.66898 7.77521,-0.0591 c 6.6408,-0.0505 7.80397,-0.10468 7.97233,-0.3712 0.28186,-0.44622 0.24966,-2.15901 -0.0462,-2.45483 -0.17949,-0.17949 -1.62643,-0.25221 -5.1489,-0.25878 -5.28334,-0.01 -5.83151,-0.0961 -7.11447,-1.11983 -1.66778,-1.33074 -2.86484,-4.15218 -2.57675,-6.07331 0.3468,-2.31265 2.82459,-5.68307 4.92569,-6.70019 0.92398,-0.4473 1.05447,-0.45205 12.41414,-0.45205 6.31419,0 11.48034,0.0568 11.48034,0.12625 0,0.20444 -1.57962,2.13584 -3.25711,3.98247 l -1.5591,1.7163 -7.45853,0 -7.45852,0 -0.43118,0.54815 c -0.59465,0.75598 -0.56039,1.60773 0.0816,2.02838 0.42922,0.28124 1.21733,0.33746 4.83685,0.34504 2.37824,0.005 4.72094,0.0858 5.20601,0.1797 2.50703,0.48506 4.3056,3.27256 4.31476,6.68723 0.004,1.39763 -0.0806,1.74211 -0.76456,3.12055 -0.86816,1.74977 -2.36382,3.39754 -3.59999,3.9661 -0.7757,0.35678 -1.61175,0.38305 -12.32616,0.38731 -6.3217,0.003 -11.49401,-0.0674 -11.49401,-0.15532 z"
         style="fill:#ff2a2a;stroke:none;stroke-width:1px;stroke-linecap:butt;stroke-linejoin:miter;stroke-opacity:1" />
    </g>
  </g>
  <g
     inkscape:label="Saucisse"
     inkscape:groupmode="layer"
     id="layer1"
     transform="translate(0,-308.26772)"
     style="display:inline">
    <path
       style="fill:#a02c2c;stroke:#000000;stroke-width:1;stroke-linecap:butt;stroke-linejoin:miter;stroke-opacity:1;stroke-miterlimit:4;stroke-dasharray:none"
       d="m 646.29507,597.22317 c -6.02736,5.90384 0.23104,22.9432 -12.75749,14.00398 -10.41141,-1.62818 -21.248,3.0675 -26.48025,12.36266 -10.66894,16.35154 -27.39105,28.39223 -45.80472,34.58885 -10.49285,2.81345 -21.23813,4.95114 -32.22431,4.16073 -11.57447,-0.93654 -23.09799,-3.69811 -33.59614,-8.80336 -13.50246,-6.51599 -25.50284,-16.45676 -33.92867,-28.8723 -6.23614,-8.11383 -16.90448,-10.7294 -26.53136,-8.55025 -4.1333,-3.96242 -4.03806,-16.38473 -12.44396,-16.27027 -4.86301,2.08538 0.11615,9.50755 -2.72408,13.01986 -5.05551,-0.89569 -22.33904,2.82408 -11.6952,8.59949 5.402,1.81745 18.34408,0.46694 10.61349,9.12972 -5.29277,10.9434 0.58014,23.32116 8.51847,31.19631 6.02684,7.96666 13.60119,14.82828 21.40772,21.03076 17.32674,12.91823 37.35093,23.02429 58.90352,26.46578 13.10121,3.58815 26.95912,1.91023 40.48575,2.20931 13.34205,-1.79001 26.65913,-4.56537 39.14018,-9.9807 15.92746,-6.70208 30.6766,-16.07757 42.89144,-28.28537 9.05593,-9.06088 17.9622,-18.62386 23.11508,-30.49405 3.92657,-7.73616 -6.04306,-19.00232 6.53524,-20.46654 7.47766,-1.85088 11.23459,-12.93569 0.44425,-9.99688 -11.49813,5.36687 -3.40843,-13.28628 -12.75465,-15.24719 l -1.11431,0.19949 z"
       id="path3347"
       inkscape:connector-curvature="0"
       sodipodi:nodetypes="cccccccccccccccccccccccc"
       inkscape:export-xdpi="34.10778"
       inkscape:export-ydpi="34.10778" />
    <path
       style="fill:none;fill-rule:evenodd;stroke:none;stroke-width:1px;stroke-linecap:butt;stroke-linejoin:miter;stroke-opacity:1"
       d="m 413.83057,628.90259 c 100.88625,99.57318 135.901,89.72528 247.72936,-0.21885"
       id="path4138"
       inkscape:connector-curvature="0"
       sodipodi:nodetypes="cc"
       inkscape:export-xdpi="34.10778"
       inkscape:export-ydpi="34.10778" />
    <path
       style="fill:#782121;stroke:none;stroke-width:1px;stroke-linecap:butt;stroke-linejoin:miter;stroke-opacity:1"
       d="m 521.08483,403.04651 c -3.47989,-0.21007 -7.97557,-0.84426 -11.42862,-1.61218 -1.33136,-0.29609 -3.75012,-0.79384 -5.37502,-1.10612 -14.57103,-2.80034 -29.47204,-8.8793 -44.055,-17.97253 -12.58464,-7.84717 -23.00081,-16.81825 -31.72643,-27.32487 -1.29674,-1.56141 -2.95919,-3.52829 -3.69434,-4.37083 -3.94068,-4.51633 -6.93611,-10.71729 -7.73391,-16.01023 -0.36152,-2.39849 -0.43167,-5.10804 -0.13225,-5.10804 0.10723,0 0.96316,0.96017 1.90207,2.13371 18.75705,23.44438 44.44072,40.84122 73.55473,49.82232 15.61777,4.81777 30.2377,6.99493 46.89988,6.98419 7.85557,-0.005 12.60239,-0.29141 19.58637,-1.18156 36.50172,-4.65236 69.06346,-22.02083 91.11234,-48.59943 1.16293,-1.40185 2.14538,-2.51983 2.18319,-2.4844 0.11402,0.10683 -1.42565,3.05749 -2.82613,5.41608 -4.39102,7.39501 -11.26278,15.44347 -21.92253,25.67654 -11.1417,10.69571 -26.42904,20.30742 -42.61407,26.79302 -8.92698,3.57718 -17.21303,5.81613 -29.31732,7.92172 -5.14839,0.89559 -5.15324,0.89599 -12.91922,1.06066 -9.81907,0.20821 -17.64381,0.19435 -21.49374,-0.038 z"
       id="path4151"
       inkscape:connector-curvature="0"
       transform="translate(0,308.26772)"
       inkscape:export-xdpi="34.10778"
       inkscape:export-ydpi="34.10778" />
  </g>
  <g
     inkscape:groupmode="layer"
     id="layer4"
     inkscape:label="Ligne_effet_glow"
     style="display:none">
    <path
       transform="translate(0,-308.26772)"
       style="display:inline;fill:none;fill-opacity:1;fill-rule:evenodd;stroke:#000000;stroke-width:0.69999999;stroke-linecap:butt;stroke-linejoin:miter;stroke-miterlimit:4;stroke-dasharray:none;stroke-opacity:1"
       d="m 413.61173,632.40406 c 62.58886,88.41224 199.80292,84.25424 250.13662,-6.12758"
       id="path4145"
       inkscape:connector-curvature="0"
       sodipodi:nodetypes="cc" />
  </g>
  <g
     inkscape:groupmode="layer"
     id="layer2"
     inkscape:label="Insigne"
     style="display:inline">
    <path
       transform="translate(0,-308.26772)"
       style="display:inline;fill:#ffd914;fill-opacity:1;stroke:#000000;stroke-width:0.645;stroke-linecap:butt;stroke-linejoin:miter;stroke-opacity:1;stroke-miterlimit:4;stroke-dasharray:none"
       d="m 532.70707,708.22465 c -0.19295,-0.18433 -2.32303,-0.52545 -4.73351,-0.7581 -5.29895,-0.51139 -12.21974,-2.58203 -18.58375,-5.5601 l -4.71988,-2.2087 1.06115,-2.5396 c 1.02015,-2.44155 0.98358,-2.64068 -0.94719,-5.15897 -1.10455,-1.44065 -2.40255,-3.53324 -2.88441,-4.6502 -0.82422,-1.9106 -0.78503,-2.00192 0.66174,-1.54273 0.93016,0.29522 1.36629,0.2105 1.10369,-0.21438 -0.23879,-0.38637 -2.68365,-0.92412 -5.43307,-1.19506 -2.95371,-0.29105 -5.35271,-0.91886 -5.86363,-1.53448 -0.47555,-0.57301 -1.33226,-1.04187 -1.90377,-1.04187 -0.5715,0 -1.74671,-0.40499 -2.61158,-0.89994 -0.86489,-0.49495 -3.19241,-0.94705 -5.17224,-1.00471 -8.17268,-0.23792 -15.47863,-1.75883 -15.47863,-3.22225 0,-0.34793 -1.63592,-0.6326 -3.6354,-0.6326 -3.88336,0 -7.4398,-1.40494 -8.13367,-3.21309 -0.25413,-0.66222 -1.31023,-1.10652 -2.63016,-1.10652 -3.45618,0 -6.98903,-1.82558 -8.24941,-4.2629 -0.82956,-1.60417 -1.65798,-2.21653 -2.99872,-2.21653 -4.04417,0 -9.62947,-3.83104 -9.62947,-6.60501 0,-0.73982 -0.80256,-1.71083 -1.78349,-2.15776 -0.98093,-0.44695 -2.43882,-2.06983 -3.23971,-3.6064 -3.2875,-6.30719 -1.18981,-7.78303 9.06192,-6.3755 5.65656,0.77662 11.94089,0.77999 35.4356,0.019 33.22913,-1.07625 36.30262,-0.96453 39.55153,1.43747 1.28151,0.94745 2.0579,1.90419 1.72535,2.12609 -1.11088,0.74114 -1.47683,3.79303 -0.61943,5.16593 1.14396,1.83176 2.54109,1.71151 3.05518,-0.26293 0.30516,-1.17209 2.1108,-2.41588 6.53214,-4.49959 l 6.11041,-2.87975 -2.73878,-2.33367 c -1.50634,-1.28351 -3.3057,-2.52023 -3.99865,-2.74825 -2.95213,-0.97153 -0.84101,-1.75748 4.72078,-1.75748 l 5.98068,0 1.31084,-5.05401 c 0.72096,-2.77972 1.55628,-5.20572 1.85624,-5.3911 0.29996,-0.18539 1.31139,2.00792 2.24762,4.87405 l 1.70222,5.2111 5.57951,0.21028 c 3.06871,0.11568 5.57951,0.44601 5.57951,0.73413 0,0.28812 -1.62153,1.80829 -3.60338,3.37813 l -3.60334,2.85426 4.61581,2.32699 c 2.53868,1.27986 5.82669,3.14874 7.30665,4.15307 3.04124,2.06385 4.66219,1.52455 4.10941,-1.36723 -0.18295,-0.95699 0.2501,-2.72649 0.96235,-3.93222 1.80592,-3.05718 4.7623,-3.35621 22.9696,-2.32331 35.3241,2.00393 45.97568,2.30705 52.3642,1.49011 7.45586,-0.95341 10.31974,-0.50981 10.89436,1.6875 0.62344,2.38405 -1.72491,6.47761 -4.38872,7.65024 -1.53192,0.67437 -2.58249,1.80448 -3.08061,3.31383 -1.04643,3.17073 -3.43404,5.17851 -6.83361,5.74648 -4.52878,0.75665 -5.39952,1.1036 -5.39952,2.15151 0,1.70357 -3.49829,3.81434 -7.15532,4.3173 -2.06154,0.28355 -4.0463,1.05744 -4.77394,1.8615 -1.41727,1.56606 -5.30946,2.81421 -8.79422,2.82012 -1.30081,0.002 -3.09382,0.48148 -3.98446,1.06503 -1.07841,0.70661 -4.34834,1.18459 -9.78929,1.43098 -4.4935,0.20346 -8.55742,0.69148 -9.03092,1.08445 -0.4735,0.39298 -1.56883,0.82254 -2.43405,0.95458 -0.86521,0.13206 -1.95306,0.62002 -2.41744,1.0844 -0.46438,0.46438 -2.72777,1.21486 -5.02978,1.66777 -2.30199,0.45288 -4.1865,1.18625 -4.18775,1.62969 -10e-4,0.44344 -1.27833,2.72554 -2.83794,5.07132 -2.20251,3.3128 -2.68055,4.55487 -2.14102,5.56301 2.07183,3.87122 -11.1135,9.39861 -26.3451,11.0441 -2.3808,0.2572 -4.48661,0.31683 -4.67956,0.1325 z m -14.14805,-14.07309 c -3.71551,-2.69149 -7.06126,-6.9666 -9.14204,-11.6815 l -1.6694,-3.78261 -0.79194,2.27172 c -0.73996,2.12277 -0.60586,2.47126 2.04526,5.31432 1.56042,1.67342 2.83716,3.74466 2.83716,4.60275 0,1.20559 0.94082,1.97926 4.13964,3.40416 5.42982,2.41871 6.05504,2.38752 2.58132,-0.12884 z m 37.3751,-0.91914 c 1.93031,-0.97392 2.69974,-1.82927 2.69974,-3.00122 0,-0.96366 1.18669,-2.79787 2.87973,-4.4511 3.02983,-2.95855 3.54255,-4.93782 1.87117,-7.22357 -0.94142,-1.28751 -1.06417,-1.17283 -1.84398,1.7232 -1.23554,4.58853 -4.78049,9.89176 -8.56461,12.81272 -3.56453,2.75146 -2.33353,2.80971 2.95795,0.13998 z"
       id="path3412"
       inkscape:connector-curvature="0"
       inkscape:export-xdpi="34.10778"
       inkscape:export-ydpi="34.10778" />
  </g>
  <g
     inkscape:groupmode="layer"
     id="layer5"
     inkscape:label="Symbole_stats">
    <g
       id="g4190"
       transform="translate(0.93055774,0)"
       inkscape:export-xdpi="34.10778"
       inkscape:export-ydpi="34.10778">
      <rect
         y="360.37131"
         x="524.0437"
         height="13.106295"
         width="4.9928741"
         id="rect4150"
         style="fill:#000000;fill-opacity:1;fill-rule:evenodd;stroke:none;stroke-width:1px;stroke-linecap:butt;stroke-linejoin:miter;stroke-opacity:1" />
      <rect
         y="366.6124"
         x="532.46924"
         height="6.865202"
         width="4.9928741"
         id="rect4150-1"
         style="fill:#000000;fill-opacity:1;fill-rule:evenodd;stroke:none;stroke-width:1px;stroke-linecap:butt;stroke-linejoin:miter;stroke-opacity:1" />
      <rect
         y="353.29807"
         x="540.89471"
         height="20.179533"
         width="4.9928741"
         id="rect4150-3"
         style="fill:#000000;fill-opacity:1;fill-rule:evenodd;stroke:none;stroke-width:1px;stroke-linecap:butt;stroke-linejoin:miter;stroke-opacity:1" />
      <rect
         y="373.26953"
         x="518.4267"
         height="1.2482183"
         width="32.869755"
         id="rect4150-5"
         style="fill:#000000;fill-opacity:1;fill-rule:evenodd;stroke:none;stroke-width:1px;stroke-linecap:butt;stroke-linejoin:miter;stroke-opacity:1" />
    </g>
  </g>
</svg>
